<svg xmlns="http://www.w3.org/2000/svg" version="1.1" xmlns:xlink="http://www.w3.org/1999/xlink" xmlns:svgjs="http://svgjs.com/svgjs" width="1440" height="560" preserveAspectRatio="none" viewBox="0 0 1440 560"><g mask="url(&quot;#SvgjsMask1362&quot;)" fill="none"><rect width="1440" height="560" x="0" y="0" fill="url(#SvgjsLinearGradient1363)"></rect><path d="M-99.08 361.96L-99.08 361.96" stroke="#132e65" stroke-width="1.5"></path><path d="M-99.08 361.96L55.01 365.5" stroke="#132e65" stroke-width="1.5"></path><path d="M-99.08 361.96L-82.24 547.74" stroke="#132e65" stroke-width="1.5"></path><path d="M-99.08 361.96L65.94 496.48" stroke="#132e65" stroke-width="1.5"></path><path d="M-99.08 361.96L199.32 405.96" stroke="#132e65" stroke-width="1.5"></path><path d="M-82.24 547.74L-82.24 547.74" stroke="#132e65" stroke-width="1.5"></path><path d="M-82.24 547.74L65.94 496.48" stroke="#132e65" stroke-width="1.5"></path><path d="M-82.24 547.74L-60.48 706.5" stroke="#132e65" stroke-width="1.5"></path><path d="M-82.24 547.74L85.6 639.99" stroke="#132e65" stroke-width="1.5"></path><path d="M-82.24 547.74L55.01 365.5" stroke="#132e65" stroke-width="1.5"></path><path d="M-82.24 547.74L214.65 532.67" stroke="#132e65" stroke-width="1.5"></path><path d="M-60.48 706.5L-60.48 706.5" stroke="#132e65" stroke-width="1.5"></path><path d="M-60.48 706.5L85.6 639.99" stroke="#132e65" stroke-width="1.5"></path><path d="M-60.48 706.5L65.94 496.48" stroke="#132e65" stroke-width="1.5"></path><path d="M-60.48 706.5L255.53 668.54" stroke="#132e65" stroke-width="1.5"></path><path d="M-60.48 706.5L214.65 532.67" stroke="#132e65" stroke-width="1.5"></path><path d="M-60.48 706.5L-99.08 361.96" stroke="#132e65" stroke-width="1.5"></path><path d="M55.01 365.5L55.01 365.5" stroke="#132e65" stroke-width="1.5"></path><path d="M55.01 365.5L65.94 496.48" stroke="#132e65" stroke-width="1.5"></path><path d="M55.01 365.5L199.32 405.96" stroke="#132e65" stroke-width="1.5"></path><path d="M55.01 365.5L214.65 532.67" stroke="#132e65" stroke-width="1.5"></path><path d="M65.94 496.48L65.94 496.48" stroke="#132e65" stroke-width="1.5"></path><path d="M65.94 496.48L85.6 639.99" stroke="#132e65" stroke-width="1.5"></path><path d="M65.94 496.48L214.65 532.67" stroke="#132e65" stroke-width="1.5"></path><path d="M65.94 496.48L199.32 405.96" stroke="#132e65" stroke-width="1.5"></path><path d="M85.6 639.99L85.6 639.99" stroke="#132e65" stroke-width="1.5"></path><path d="M85.6 639.99L214.65 532.67" stroke="#132e65" stroke-width="1.5"></path><path d="M85.6 639.99L255.53 668.54" stroke="#132e65" stroke-width="1.5"></path><path d="M199.32 405.96L199.32 405.96" stroke="#132e65" stroke-width="1.5"></path><path d="M199.32 405.96L214.65 532.67" stroke="#132e65" stroke-width="1.5"></path><path d="M214.65 532.67L214.65 532.67" stroke="#132e65" stroke-width="1.5"></path><path d="M214.65 532.67L255.53 668.54" stroke="#132e65" stroke-width="1.5"></path><path d="M255.53 668.54L255.53 668.54" stroke="#132e65" stroke-width="1.5"></path><path d="M255.53 668.54L405.84 664.57" stroke="#132e65" stroke-width="1.5"></path><path d="M255.53 668.54L374.4 544.22" stroke="#132e65" stroke-width="1.5"></path><path d="M401.93 407.07L401.93 407.07" stroke="#132e65" stroke-width="1.5"></path><path d="M401.93 407.07L522.44 374.84" stroke="#132e65" stroke-width="1.5"></path><path d="M401.93 407.07L374.4 544.22" stroke="#132e65" stroke-width="1.5"></path><path d="M401.93 407.07L199.32 405.96" stroke="#132e65" stroke-width="1.5"></path><path d="M401.93 407.07L214.65 532.67" stroke="#132e65" stroke-width="1.5"></path><path d="M401.93 407.07L405.84 664.57" stroke="#132e65" stroke-width="1.5"></path><path d="M374.4 544.22L374.4 544.22" stroke="#132e65" stroke-width="1.5"></path><path d="M374.4 544.22L405.84 664.57" stroke="#132e65" stroke-width="1.5"></path><path d="M405.84 664.57L405.84 664.57" stroke="#132e65" stroke-width="1.5"></path><path d="M405.84 664.57L488.09 675.36" stroke="#132e65" stroke-width="1.5"></path><path d="M522.44 374.84L522.44 374.84" stroke="#132e65" stroke-width="1.5"></path><path d="M522.44 374.84L692.55 396.97" stroke="#132e65" stroke-width="1.5"></path><path d="M522.44 374.84L676.2 506.16" stroke="#132e65" stroke-width="1.5"></path><path d="M522.44 374.84L698.02 253.95" stroke="#132e65" stroke-width="1.5"></path><path d="M522.44 374.84L374.4 544.22" stroke="#132e65" stroke-width="1.5"></path><path d="M522.44 374.84L790.94 504.83" stroke="#132e65" stroke-width="1.5"></path><path d="M488.09 675.36L488.09 675.36" stroke="#132e65" stroke-width="1.5"></path><path d="M488.09 675.36L374.4 544.22" stroke="#132e65" stroke-width="1.5"></path><path d="M698.02 253.95L698.02 253.95" stroke="#132e65" stroke-width="1.5"></path><path d="M698.02 253.95L809.78 226.11" stroke="#132e65" stroke-width="1.5"></path><path d="M698.02 253.95L692.55 396.97" stroke="#132e65" stroke-width="1.5"></path><path d="M698.02 253.95L831.19 366.89" stroke="#132e65" stroke-width="1.5"></path><path d="M698.02 253.95L943.72 231.98" stroke="#132e65" stroke-width="1.5"></path><path d="M692.55 396.97L692.55 396.97" stroke="#132e65" stroke-width="1.5"></path><path d="M692.55 396.97L676.2 506.16" stroke="#132e65" stroke-width="1.5"></path><path d="M692.55 396.97L831.19 366.89" stroke="#132e65" stroke-width="1.5"></path><path d="M692.55 396.97L790.94 504.83" stroke="#132e65" stroke-width="1.5"></path><path d="M676.2 506.16L676.2 506.16" stroke="#132e65" stroke-width="1.5"></path><path d="M676.2 506.16L790.94 504.83" stroke="#132e65" stroke-width="1.5"></path><path d="M676.2 506.16L695.7 660.33" stroke="#132e65" stroke-width="1.5"></path><path d="M676.2 506.16L831.19 366.89" stroke="#132e65" stroke-width="1.5"></path><path d="M676.2 506.16L806.84 688.47" stroke="#132e65" stroke-width="1.5"></path><path d="M695.7 660.33L695.7 660.33" stroke="#132e65" stroke-width="1.5"></path><path d="M695.7 660.33L806.84 688.47" stroke="#132e65" stroke-width="1.5"></path><path d="M695.7 660.33L790.94 504.83" stroke="#132e65" stroke-width="1.5"></path><path d="M695.7 660.33L488.09 675.36" stroke="#132e65" stroke-width="1.5"></path><path d="M809.78 226.11L809.78 226.11" stroke="#132e65" stroke-width="1.5"></path><path d="M809.78 226.11L943.72 231.98" stroke="#132e65" stroke-width="1.5"></path><path d="M809.78 226.11L831.19 366.89" stroke="#132e65" stroke-width="1.5"></path><path d="M809.78 226.11L692.55 396.97" stroke="#132e65" stroke-width="1.5"></path><path d="M831.19 366.89L831.19 366.89" stroke="#132e65" stroke-width="1.5"></path><path d="M831.19 366.89L790.94 504.83" stroke="#132e65" stroke-width="1.5"></path><path d="M790.94 504.83L790.94 504.83" stroke="#132e65" stroke-width="1.5"></path><path d="M806.84 688.47L806.84 688.47" stroke="#132e65" stroke-width="1.5"></path><path d="M1002.28 -37.73L1002.28 -37.73" stroke="#132e65" stroke-width="1.5"></path><path d="M1002.28 -37.73L985.85 63.58" stroke="#132e65" stroke-width="1.5"></path><path d="M1002.28 -37.73L1114.33 -80.61" stroke="#132e65" stroke-width="1.5"></path><path d="M1002.28 -37.73L1127.31 43.5" stroke="#132e65" stroke-width="1.5"></path><path d="M1002.28 -37.73L1238.17 78.91" stroke="#132e65" stroke-width="1.5"></path><path d="M1002.28 -37.73L943.72 231.98" stroke="#132e65" stroke-width="1.5"></path><path d="M1002.28 -37.73L1278.51 -52.43" stroke="#132e65" stroke-width="1.5"></path><path d="M985.85 63.58L985.85 63.58" stroke="#132e65" stroke-width="1.5"></path><path d="M985.85 63.58L1127.31 43.5" stroke="#132e65" stroke-width="1.5"></path><path d="M985.85 63.58L943.72 231.98" stroke="#132e65" stroke-width="1.5"></path><path d="M985.85 63.58L1114.33 -80.61" stroke="#132e65" stroke-width="1.5"></path><path d="M943.72 231.98L943.72 231.98" stroke="#132e65" stroke-width="1.5"></path><path d="M943.72 231.98L1004.62 375.35" stroke="#132e65" stroke-width="1.5"></path><path d="M1004.62 375.35L1004.62 375.35" stroke="#132e65" stroke-width="1.5"></path><path d="M1004.62 375.35L1159.61 392.48" stroke="#132e65" stroke-width="1.5"></path><path d="M1004.62 375.35L1095.8 511.6" stroke="#132e65" stroke-width="1.5"></path><path d="M1004.62 375.35L831.19 366.89" stroke="#132e65" stroke-width="1.5"></path><path d="M1004.62 375.35L809.78 226.11" stroke="#132e65" stroke-width="1.5"></path><path d="M1004.62 375.35L790.94 504.83" stroke="#132e65" stroke-width="1.5"></path><path d="M1010.75 687.97L1010.75 687.97" stroke="#132e65" stroke-width="1.5"></path><path d="M1010.75 687.97L1146.11 657.08" stroke="#132e65" stroke-width="1.5"></path><path d="M1010.75 687.97L1095.8 511.6" stroke="#132e65" stroke-width="1.5"></path><path d="M1010.75 687.97L806.84 688.47" stroke="#132e65" stroke-width="1.5"></path><path d="M1114.33 -80.61L1114.33 -80.61" stroke="#132e65" stroke-width="1.5"></path><path d="M1114.33 -80.61L1127.31 43.5" stroke="#132e65" stroke-width="1.5"></path><path d="M1114.33 -80.61L1278.51 -52.43" stroke="#132e65" stroke-width="1.5"></path><path d="M1127.31 43.5L1127.31 43.5" stroke="#132e65" stroke-width="1.5"></path><path d="M1127.31 43.5L1238.17 78.91" stroke="#132e65" stroke-width="1.5"></path><path d="M1159.61 392.48L1159.61 392.48" stroke="#132e65" stroke-width="1.5"></path><path d="M1159.61 392.48L1095.8 511.6" stroke="#132e65" stroke-width="1.5"></path><path d="M1159.61 392.48L1311.56 505.5" stroke="#132e65" stroke-width="1.5"></path><path d="M1159.61 392.48L1291.03 220.94" stroke="#132e65" stroke-width="1.5"></path><path d="M1159.61 392.48L1146.11 657.08" stroke="#132e65" stroke-width="1.5"></path><path d="M1095.8 511.6L1095.8 511.6" stroke="#132e65" stroke-width="1.5"></path><path d="M1095.8 511.6L1146.11 657.08" stroke="#132e65" stroke-width="1.5"></path><path d="M1146.11 657.08L1146.11 657.08" stroke="#132e65" stroke-width="1.5"></path><path d="M1146.11 657.08L1271.74 696.2" stroke="#132e65" stroke-width="1.5"></path><path d="M1278.51 -52.43L1278.51 -52.43" stroke="#132e65" stroke-width="1.5"></path><path d="M1278.51 -52.43L1238.17 78.91" stroke="#132e65" stroke-width="1.5"></path><path d="M1278.51 -52.43L1435.08 -111.91" stroke="#132e65" stroke-width="1.5"></path><path d="M1278.51 -52.43L1127.31 43.5" stroke="#132e65" stroke-width="1.5"></path><path d="M1278.51 -52.43L1445.97 62.78" stroke="#132e65" stroke-width="1.5"></path><path d="M1278.51 -52.43L1291.03 220.94" stroke="#132e65" stroke-width="1.5"></path><path d="M1238.17 78.91L1238.17 78.91" stroke="#132e65" stroke-width="1.5"></path><path d="M1238.17 78.91L1291.03 220.94" stroke="#132e65" stroke-width="1.5"></path><path d="M1238.17 78.91L1114.33 -80.61" stroke="#132e65" stroke-width="1.5"></path><path d="M1291.03 220.94L1291.03 220.94" stroke="#132e65" stroke-width="1.5"></path><path d="M1291.03 220.94L1425.92 241.03" stroke="#132e65" stroke-width="1.5"></path><path d="M1311.56 505.5L1311.56 505.5" stroke="#132e65" stroke-width="1.5"></path><path d="M1311.56 505.5L1444.86 396.22" stroke="#132e65" stroke-width="1.5"></path><path d="M1311.56 505.5L1399.18 670.02" stroke="#132e65" stroke-width="1.5"></path><path d="M1271.74 696.2L1271.74 696.2" stroke="#132e65" stroke-width="1.5"></path><path d="M1271.74 696.2L1399.18 670.02" stroke="#132e65" stroke-width="1.5"></path><path d="M1435.08 -111.91L1435.08 -111.91" stroke="#132e65" stroke-width="1.5"></path><path d="M1435.08 -111.91L1584.48 -59.57" stroke="#132e65" stroke-width="1.5"></path><path d="M1435.08 -111.91L1445.97 62.78" stroke="#132e65" stroke-width="1.5"></path><path d="M1445.97 62.78L1445.97 62.78" stroke="#132e65" stroke-width="1.5"></path><path d="M1445.97 62.78L1556.4 41.54" stroke="#132e65" stroke-width="1.5"></path><path d="M1425.92 241.03L1425.92 241.03" stroke="#132e65" stroke-width="1.5"></path><path d="M1425.92 241.03L1444.86 396.22" stroke="#132e65" stroke-width="1.5"></path><path d="M1425.92 241.03L1597.8 230.51" stroke="#132e65" stroke-width="1.5"></path><path d="M1425.92 241.03L1445.97 62.78" stroke="#132e65" stroke-width="1.5"></path><path d="M1444.86 396.22L1444.86 396.22" stroke="#132e65" stroke-width="1.5"></path><path d="M1444.86 396.22L1584.09 344.52" stroke="#132e65" stroke-width="1.5"></path><path d="M1399.18 670.02L1399.18 670.02" stroke="#132e65" stroke-width="1.5"></path><path d="M1399.18 670.02L1586.95 710.68" stroke="#132e65" stroke-width="1.5"></path><path d="M1584.48 -59.57L1584.48 -59.57" stroke="#132e65" stroke-width="1.5"></path><path d="M1584.48 -59.57L1556.4 41.54" stroke="#132e65" stroke-width="1.5"></path><path d="M1584.48 -59.57L1445.97 62.78" stroke="#132e65" stroke-width="1.5"></path><path d="M1584.48 -59.57L1597.8 230.51" stroke="#132e65" stroke-width="1.5"></path><path d="M1584.48 -59.57L1278.51 -52.43" stroke="#132e65" stroke-width="1.5"></path><path d="M1584.48 -59.57L1425.92 241.03" stroke="#132e65" stroke-width="1.5"></path><path d="M1556.4 41.54L1556.4 41.54" stroke="#132e65" stroke-width="1.5"></path><path d="M1556.4 41.54L1597.8 230.51" stroke="#132e65" stroke-width="1.5"></path><path d="M1556.4 41.54L1435.08 -111.91" stroke="#132e65" stroke-width="1.5"></path><path d="M1597.8 230.51L1597.8 230.51" stroke="#132e65" stroke-width="1.5"></path><path d="M1597.8 230.51L1584.09 344.52" stroke="#132e65" stroke-width="1.5"></path><path d="M1584.09 344.52L1584.09 344.52" stroke="#132e65" stroke-width="1.5"></path><path d="M1584.09 344.52L1602.37 493.87" stroke="#132e65" stroke-width="1.5"></path><path d="M1602.37 493.87L1602.37 493.87" stroke="#132e65" stroke-width="1.5"></path><path d="M1602.37 493.87L1444.86 396.22" stroke="#132e65" stroke-width="1.5"></path><path d="M1602.37 493.87L1586.95 710.68" stroke="#132e65" stroke-width="1.5"></path><path d="M1602.37 493.87L1597.8 230.51" stroke="#132e65" stroke-width="1.5"></path><path d="M1602.37 493.87L1399.18 670.02" stroke="#132e65" stroke-width="1.5"></path><path d="M1602.37 493.87L1311.56 505.5" stroke="#132e65" stroke-width="1.5"></path><path d="M1586.95 710.68L1586.95 710.68" stroke="#132e65" stroke-width="1.5"></path><circle r="5" cx="-99.08" cy="361.96" fill="#132e65"></circle><circle r="5" cx="-82.24" cy="547.74" fill="#132e65"></circle><circle r="5" cx="-60.48" cy="706.5" fill="#132e65"></circle><circle r="5" cx="55.01" cy="365.5" fill="#132e65"></circle><circle r="5" cx="65.94" cy="496.48" fill="#132e65"></circle><circle r="5" cx="85.6" cy="639.99" fill="#132e65"></circle><circle r="5" cx="199.32" cy="405.96" fill="#132e65"></circle><circle r="5" cx="214.65" cy="532.67" fill="#132e65"></circle><circle r="5" cx="255.53" cy="668.54" fill="#132e65"></circle><circle r="5" cx="401.93" cy="407.07" fill="#132e65"></circle><circle r="5" cx="374.4" cy="544.22" fill="#132e65"></circle><circle r="5" cx="405.84" cy="664.57" fill="#132e65"></circle><circle r="5" cx="522.44" cy="374.84" fill="#132e65"></circle><circle r="5" cx="488.09" cy="675.36" fill="#132e65"></circle><circle r="5" cx="698.02" cy="253.95" fill="#132e65"></circle><circle r="5" cx="692.55" cy="396.97" fill="#132e65"></circle><circle r="5" cx="676.2" cy="506.16" fill="#132e65"></circle><circle r="5" cx="695.7" cy="660.33" fill="#132e65"></circle><circle r="5" cx="809.78" cy="226.11" fill="#132e65"></circle><circle r="5" cx="831.19" cy="366.89" fill="#132e65"></circle><circle r="5" cx="790.94" cy="504.83" fill="#132e65"></circle><circle r="5" cx="806.84" cy="688.47" fill="#132e65"></circle><circle r="5" cx="1002.28" cy="-37.73" fill="#132e65"></circle><circle r="5" cx="985.85" cy="63.58" fill="#132e65"></circle><circle r="5" cx="943.72" cy="231.98" fill="#132e65"></circle><circle r="5" cx="1004.62" cy="375.35" fill="#132e65"></circle><circle r="5" cx="1010.75" cy="687.97" fill="#132e65"></circle><circle r="5" cx="1114.33" cy="-80.61" fill="#132e65"></circle><circle r="5" cx="1127.31" cy="43.5" fill="#132e65"></circle><circle r="5" cx="1159.61" cy="392.48" fill="#132e65"></circle><circle r="5" cx="1095.8" cy="511.6" fill="#132e65"></circle><circle r="5" cx="1146.11" cy="657.08" fill="#132e65"></circle><circle r="5" cx="1278.51" cy="-52.43" fill="#132e65"></circle><circle r="5" cx="1238.17" cy="78.91" fill="#132e65"></circle><circle r="5" cx="1291.03" cy="220.94" fill="#132e65"></circle><circle r="5" cx="1311.56" cy="505.5" fill="#132e65"></circle><circle r="5" cx="1271.74" cy="696.2" fill="#132e65"></circle><circle r="5" cx="1435.08" cy="-111.91" fill="#132e65"></circle><circle r="5" cx="1445.97" cy="62.78" fill="#132e65"></circle><circle r="5" cx="1425.92" cy="241.03" fill="#132e65"></circle><circle r="5" cx="1444.86" cy="396.22" fill="#132e65"></circle><circle r="5" cx="1399.18" cy="670.02" fill="#132e65"></circle><circle r="5" cx="1584.48" cy="-59.57" fill="#132e65"></circle><circle r="5" cx="1556.4" cy="41.54" fill="#132e65"></circle><circle r="5" cx="1597.8" cy="230.51" fill="#132e65"></circle><circle r="5" cx="1584.09" cy="344.52" fill="#132e65"></circle><circle r="5" cx="1602.37" cy="493.87" fill="#132e65"></circle><circle r="5" cx="1586.95" cy="710.68" fill="#132e65"></circle><path d="M349.93 639.81L349.93 639.81" stroke="hsl(228.5, 77.2%, 51.5%)" stroke-width="1.5"></path><path d="M349.93 639.81L387.99 541.83" stroke="hsl(228.5, 77.2%, 51.5%)" stroke-width="1.5"></path><path d="M349.93 639.81L214.07 659.76" stroke="hsl(228.5, 77.2%, 51.5%)" stroke-width="1.5"></path><path d="M543.81 540.96L543.81 540.96" stroke="hsl(228.5, 77.2%, 51.5%)" stroke-width="1.5"></path><path d="M543.81 540.96L643.64 527.32" stroke="hsl(228.5, 77.2%, 51.5%)" stroke-width="1.5"></path><path d="M543.81 540.96L545.6 655.76" stroke="hsl(228.5, 77.2%, 51.5%)" stroke-width="1.5"></path><path d="M543.81 540.96L387.99 541.83" stroke="hsl(228.5, 77.2%, 51.5%)" stroke-width="1.5"></path><path d="M1097.66 686.33L1097.66 686.33" stroke="hsl(228.5, 77.2%, 51.5%)" stroke-width="1.5"></path><path d="M1097.66 686.33L1007.96 639.72" stroke="hsl(228.5, 77.2%, 51.5%)" stroke-width="1.5"></path><path d="M1097.66 686.33L1282.86 697.21" stroke="hsl(228.5, 77.2%, 51.5%)" stroke-width="1.5"></path><path d="M1097.66 686.33L861.91 706.61" stroke="hsl(228.5, 77.2%, 51.5%)" stroke-width="1.5"></path><path d="M1097.66 686.33L1302.53 560.59" stroke="hsl(228.5, 77.2%, 51.5%)" stroke-width="1.5"></path><path d="M1097.66 686.33L809.07 557.1" stroke="hsl(228.5, 77.2%, 51.5%)" stroke-width="1.5"></path><path d="M1097.66 686.33L1126 357.47" stroke="hsl(228.5, 77.2%, 51.5%)" stroke-width="1.5"></path><path d="M1255.34 383.25L1255.34 383.25" stroke="hsl(228.5, 77.2%, 51.5%)" stroke-width="1.5"></path><path d="M1255.34 383.25L1126 357.47" stroke="hsl(228.5, 77.2%, 51.5%)" stroke-width="1.5"></path><path d="M1255.34 383.25L1434.18 368.78" stroke="hsl(228.5, 77.2%, 51.5%)" stroke-width="1.5"></path><path d="M1255.34 383.25L1298.05 204.93" stroke="hsl(228.5, 77.2%, 51.5%)" stroke-width="1.5"></path><path d="M1255.34 383.25L1302.53 560.59" stroke="hsl(228.5, 77.2%, 51.5%)" stroke-width="1.5"></path><path d="M1255.34 383.25L1407.63 237.86" stroke="hsl(228.5, 77.2%, 51.5%)" stroke-width="1.5"></path><path d="M1434.18 368.78L1434.18 368.78" stroke="hsl(228.5, 77.2%, 51.5%)" stroke-width="1.5"></path><path d="M1434.18 368.78L1547.01 367.04" stroke="hsl(228.5, 77.2%, 51.5%)" stroke-width="1.5"></path><path d="M1434.18 368.78L1407.63 237.86" stroke="hsl(228.5, 77.2%, 51.5%)" stroke-width="1.5"></path><path d="M1434.18 368.78L1458.41 503.61" stroke="hsl(228.5, 77.2%, 51.5%)" stroke-width="1.5"></path><path d="M1593.28 232.25L1593.28 232.25" stroke="hsl(228.5, 77.2%, 51.5%)" stroke-width="1.5"></path><path d="M1593.28 232.25L1547.01 367.04" stroke="hsl(228.5, 77.2%, 51.5%)" stroke-width="1.5"></path><path d="M1593.28 232.25L1568.72 65.5" stroke="hsl(228.5, 77.2%, 51.5%)" stroke-width="1.5"></path><path d="M1547.01 367.04L1547.01 367.04" stroke="hsl(228.5, 77.2%, 51.5%)" stroke-width="1.5"></path><path d="M1547.01 367.04L1458.41 503.61" stroke="hsl(228.5, 77.2%, 51.5%)" stroke-width="1.5"></path><path d="M1547.01 367.04L1538.81 549.63" stroke="hsl(228.5, 77.2%, 51.5%)" stroke-width="1.5"></path><path d="M1547.01 367.04L1407.63 237.86" stroke="hsl(228.5, 77.2%, 51.5%)" stroke-width="1.5"></path><path d="M1547.01 367.04L1255.34 383.25" stroke="hsl(228.5, 77.2%, 51.5%)" stroke-width="1.5"></path><path d="M-43.01 519.06L-43.01 519.06" stroke="hsl(228.5, 77.2%, 51.5%)" stroke-width="1.5"></path><path d="M-43.01 519.06L106.84 525.86" stroke="hsl(228.5, 77.2%, 51.5%)" stroke-width="1.5"></path><path d="M-43.01 519.06L-38.96 688.78" stroke="hsl(228.5, 77.2%, 51.5%)" stroke-width="1.5"></path><path d="M-43.01 519.06L51.67 679.15" stroke="hsl(228.5, 77.2%, 51.5%)" stroke-width="1.5"></path><path d="M-38.96 688.78L-38.96 688.78" stroke="hsl(228.5, 77.2%, 51.5%)" stroke-width="1.5"></path><path d="M-38.96 688.78L51.67 679.15" stroke="hsl(228.5, 77.2%, 51.5%)" stroke-width="1.5"></path><path d="M-38.96 688.78L106.84 525.86" stroke="hsl(228.5, 77.2%, 51.5%)" stroke-width="1.5"></path><path d="M106.84 525.86L106.84 525.86" stroke="hsl(228.5, 77.2%, 51.5%)" stroke-width="1.5"></path><path d="M106.84 525.86L193.73 557.92" stroke="hsl(228.5, 77.2%, 51.5%)" stroke-width="1.5"></path><path d="M106.84 525.86L51.67 679.15" stroke="hsl(228.5, 77.2%, 51.5%)" stroke-width="1.5"></path><path d="M51.67 679.15L51.67 679.15" stroke="hsl(228.5, 77.2%, 51.5%)" stroke-width="1.5"></path><path d="M193.73 557.92L193.73 557.92" stroke="hsl(228.5, 77.2%, 51.5%)" stroke-width="1.5"></path><path d="M193.73 557.92L214.07 659.76" stroke="hsl(228.5, 77.2%, 51.5%)" stroke-width="1.5"></path><path d="M193.73 557.92L349.93 639.81" stroke="hsl(228.5, 77.2%, 51.5%)" stroke-width="1.5"></path><path d="M193.73 557.92L51.67 679.15" stroke="hsl(228.5, 77.2%, 51.5%)" stroke-width="1.5"></path><path d="M214.07 659.76L214.07 659.76" stroke="hsl(228.5, 77.2%, 51.5%)" stroke-width="1.5"></path><path d="M214.07 659.76L51.67 679.15" stroke="hsl(228.5, 77.2%, 51.5%)" stroke-width="1.5"></path><path d="M214.07 659.76L106.84 525.86" stroke="hsl(228.5, 77.2%, 51.5%)" stroke-width="1.5"></path><path d="M214.07 659.76L387.99 541.83" stroke="hsl(228.5, 77.2%, 51.5%)" stroke-width="1.5"></path><path d="M387.99 541.83L387.99 541.83" stroke="hsl(228.5, 77.2%, 51.5%)" stroke-width="1.5"></path><path d="M545.6 655.76L545.6 655.76" stroke="hsl(228.5, 77.2%, 51.5%)" stroke-width="1.5"></path><path d="M545.6 655.76L684.7 643.94" stroke="hsl(228.5, 77.2%, 51.5%)" stroke-width="1.5"></path><path d="M545.6 655.76L643.64 527.32" stroke="hsl(228.5, 77.2%, 51.5%)" stroke-width="1.5"></path><path d="M545.6 655.76L387.99 541.83" stroke="hsl(228.5, 77.2%, 51.5%)" stroke-width="1.5"></path><path d="M643.64 527.32L643.64 527.32" stroke="hsl(228.5, 77.2%, 51.5%)" stroke-width="1.5"></path><path d="M643.64 527.32L684.7 643.94" stroke="hsl(228.5, 77.2%, 51.5%)" stroke-width="1.5"></path><path d="M643.64 527.32L809.07 557.1" stroke="hsl(228.5, 77.2%, 51.5%)" stroke-width="1.5"></path><path d="M643.64 527.32L797.74 337.55" stroke="hsl(228.5, 77.2%, 51.5%)" stroke-width="1.5"></path><path d="M643.64 527.32L387.99 541.83" stroke="hsl(228.5, 77.2%, 51.5%)" stroke-width="1.5"></path><path d="M684.7 643.94L684.7 643.94" stroke="hsl(228.5, 77.2%, 51.5%)" stroke-width="1.5"></path><path d="M684.7 643.94L809.07 557.1" stroke="hsl(228.5, 77.2%, 51.5%)" stroke-width="1.5"></path><path d="M797.74 337.55L797.74 337.55" stroke="hsl(228.5, 77.2%, 51.5%)" stroke-width="1.5"></path><path d="M797.74 337.55L968.75 338.07" stroke="hsl(228.5, 77.2%, 51.5%)" stroke-width="1.5"></path><path d="M797.74 337.55L809.07 557.1" stroke="hsl(228.5, 77.2%, 51.5%)" stroke-width="1.5"></path><path d="M797.74 337.55L543.81 540.96" stroke="hsl(228.5, 77.2%, 51.5%)" stroke-width="1.5"></path><path d="M797.74 337.55L684.7 643.94" stroke="hsl(228.5, 77.2%, 51.5%)" stroke-width="1.5"></path><path d="M809.07 557.1L809.07 557.1" stroke="hsl(228.5, 77.2%, 51.5%)" stroke-width="1.5"></path><path d="M809.07 557.1L861.91 706.61" stroke="hsl(228.5, 77.2%, 51.5%)" stroke-width="1.5"></path><path d="M861.91 706.61L861.91 706.61" stroke="hsl(228.5, 77.2%, 51.5%)" stroke-width="1.5"></path><path d="M861.91 706.61L1007.96 639.72" stroke="hsl(228.5, 77.2%, 51.5%)" stroke-width="1.5"></path><path d="M861.91 706.61L684.7 643.94" stroke="hsl(228.5, 77.2%, 51.5%)" stroke-width="1.5"></path><path d="M861.91 706.61L643.64 527.32" stroke="hsl(228.5, 77.2%, 51.5%)" stroke-width="1.5"></path><path d="M968.75 338.07L968.75 338.07" stroke="hsl(228.5, 77.2%, 51.5%)" stroke-width="1.5"></path><path d="M968.75 338.07L1126 357.47" stroke="hsl(228.5, 77.2%, 51.5%)" stroke-width="1.5"></path><path d="M968.75 338.07L1114.72 219.46" stroke="hsl(228.5, 77.2%, 51.5%)" stroke-width="1.5"></path><path d="M968.75 338.07L809.07 557.1" stroke="hsl(228.5, 77.2%, 51.5%)" stroke-width="1.5"></path><path d="M1007.96 639.72L1007.96 639.72" stroke="hsl(228.5, 77.2%, 51.5%)" stroke-width="1.5"></path><path d="M1007.96 639.72L809.07 557.1" stroke="hsl(228.5, 77.2%, 51.5%)" stroke-width="1.5"></path><path d="M1007.96 639.72L1282.86 697.21" stroke="hsl(228.5, 77.2%, 51.5%)" stroke-width="1.5"></path><path d="M1007.96 639.72L968.75 338.07" stroke="hsl(228.5, 77.2%, 51.5%)" stroke-width="1.5"></path><path d="M1007.96 639.72L1302.53 560.59" stroke="hsl(228.5, 77.2%, 51.5%)" stroke-width="1.5"></path><path d="M1114.72 219.46L1114.72 219.46" stroke="hsl(228.5, 77.2%, 51.5%)" stroke-width="1.5"></path><path d="M1114.72 219.46L1126 357.47" stroke="hsl(228.5, 77.2%, 51.5%)" stroke-width="1.5"></path><path d="M1114.72 219.46L1298.05 204.93" stroke="hsl(228.5, 77.2%, 51.5%)" stroke-width="1.5"></path><path d="M1126 357.47L1126 357.47" stroke="hsl(228.5, 77.2%, 51.5%)" stroke-width="1.5"></path><path d="M1126 357.47L1298.05 204.93" stroke="hsl(228.5, 77.2%, 51.5%)" stroke-width="1.5"></path><path d="M1252.49 -40.89L1252.49 -40.89" stroke="hsl(228.5, 77.2%, 51.5%)" stroke-width="1.5"></path><path d="M1252.49 -40.89L1279.44 54.52" stroke="hsl(228.5, 77.2%, 51.5%)" stroke-width="1.5"></path><path d="M1252.49 -40.89L1449.2 -60.48" stroke="hsl(228.5, 77.2%, 51.5%)" stroke-width="1.5"></path><path d="M1252.49 -40.89L1460.88 51.55" stroke="hsl(228.5, 77.2%, 51.5%)" stroke-width="1.5"></path><path d="M1279.44 54.52L1279.44 54.52" stroke="hsl(228.5, 77.2%, 51.5%)" stroke-width="1.5"></path><path d="M1279.44 54.52L1298.05 204.93" stroke="hsl(228.5, 77.2%, 51.5%)" stroke-width="1.5"></path><path d="M1279.44 54.52L1460.88 51.55" stroke="hsl(228.5, 77.2%, 51.5%)" stroke-width="1.5"></path><path d="M1279.44 54.52L1449.2 -60.48" stroke="hsl(228.5, 77.2%, 51.5%)" stroke-width="1.5"></path><path d="M1279.44 54.52L1407.63 237.86" stroke="hsl(228.5, 77.2%, 51.5%)" stroke-width="1.5"></path><path d="M1298.05 204.93L1298.05 204.93" stroke="hsl(228.5, 77.2%, 51.5%)" stroke-width="1.5"></path><path d="M1298.05 204.93L1407.63 237.86" stroke="hsl(228.5, 77.2%, 51.5%)" stroke-width="1.5"></path><path d="M1298.05 204.93L1434.18 368.78" stroke="hsl(228.5, 77.2%, 51.5%)" stroke-width="1.5"></path><path d="M1302.53 560.59L1302.53 560.59" stroke="hsl(228.5, 77.2%, 51.5%)" stroke-width="1.5"></path><path d="M1302.53 560.59L1282.86 697.21" stroke="hsl(228.5, 77.2%, 51.5%)" stroke-width="1.5"></path><path d="M1302.53 560.59L1458.41 503.61" stroke="hsl(228.5, 77.2%, 51.5%)" stroke-width="1.5"></path><path d="M1302.53 560.59L1435.14 691.27" stroke="hsl(228.5, 77.2%, 51.5%)" stroke-width="1.5"></path><path d="M1302.53 560.59L1434.18 368.78" stroke="hsl(228.5, 77.2%, 51.5%)" stroke-width="1.5"></path><path d="M1302.53 560.59L1538.81 549.63" stroke="hsl(228.5, 77.2%, 51.5%)" stroke-width="1.5"></path><path d="M1282.86 697.21L1282.86 697.21" stroke="hsl(228.5, 77.2%, 51.5%)" stroke-width="1.5"></path><path d="M1282.86 697.21L1435.14 691.27" stroke="hsl(228.5, 77.2%, 51.5%)" stroke-width="1.5"></path><path d="M1449.2 -60.48L1449.2 -60.48" stroke="hsl(228.5, 77.2%, 51.5%)" stroke-width="1.5"></path><path d="M1449.2 -60.48L1460.88 51.55" stroke="hsl(228.5, 77.2%, 51.5%)" stroke-width="1.5"></path><path d="M1460.88 51.55L1460.88 51.55" stroke="hsl(228.5, 77.2%, 51.5%)" stroke-width="1.5"></path><path d="M1460.88 51.55L1568.72 65.5" stroke="hsl(228.5, 77.2%, 51.5%)" stroke-width="1.5"></path><path d="M1460.88 51.55L1407.63 237.86" stroke="hsl(228.5, 77.2%, 51.5%)" stroke-width="1.5"></path><path d="M1460.88 51.55L1609.96 -109.56" stroke="hsl(228.5, 77.2%, 51.5%)" stroke-width="1.5"></path><path d="M1407.63 237.86L1407.63 237.86" stroke="hsl(228.5, 77.2%, 51.5%)" stroke-width="1.5"></path><path d="M1407.63 237.86L1593.28 232.25" stroke="hsl(228.5, 77.2%, 51.5%)" stroke-width="1.5"></path><path d="M1458.41 503.61L1458.41 503.61" stroke="hsl(228.5, 77.2%, 51.5%)" stroke-width="1.5"></path><path d="M1458.41 503.61L1538.81 549.63" stroke="hsl(228.5, 77.2%, 51.5%)" stroke-width="1.5"></path><path d="M1458.41 503.61L1435.14 691.27" stroke="hsl(228.5, 77.2%, 51.5%)" stroke-width="1.5"></path><path d="M1458.41 503.61L1606.33 686.96" stroke="hsl(228.5, 77.2%, 51.5%)" stroke-width="1.5"></path><path d="M1435.14 691.27L1435.14 691.27" stroke="hsl(228.5, 77.2%, 51.5%)" stroke-width="1.5"></path><path d="M1435.14 691.27L1606.33 686.96" stroke="hsl(228.5, 77.2%, 51.5%)" stroke-width="1.5"></path><path d="M1435.14 691.27L1538.81 549.63" stroke="hsl(228.5, 77.2%, 51.5%)" stroke-width="1.5"></path><path d="M1609.96 -109.56L1609.96 -109.56" stroke="hsl(228.5, 77.2%, 51.5%)" stroke-width="1.5"></path><path d="M1609.96 -109.56L1449.2 -60.48" stroke="hsl(228.5, 77.2%, 51.5%)" stroke-width="1.5"></path><path d="M1568.72 65.5L1568.72 65.5" stroke="hsl(228.5, 77.2%, 51.5%)" stroke-width="1.5"></path><path d="M1538.81 549.63L1538.81 549.63" stroke="hsl(228.5, 77.2%, 51.5%)" stroke-width="1.5"></path><path d="M1538.81 549.63L1606.33 686.96" stroke="hsl(228.5, 77.2%, 51.5%)" stroke-width="1.5"></path><path d="M1538.81 549.63L1434.18 368.78" stroke="hsl(228.5, 77.2%, 51.5%)" stroke-width="1.5"></path><path d="M1606.33 686.96L1606.33 686.96" stroke="hsl(228.5, 77.2%, 51.5%)" stroke-width="1.5"></path><path d="M1606.33 686.96L1282.86 697.21" stroke="hsl(228.5, 77.2%, 51.5%)" stroke-width="1.5"></path><path d="M1606.33 686.96L1547.01 367.04" stroke="hsl(228.5, 77.2%, 51.5%)" stroke-width="1.5"></path><circle r="25" cx="349.93" cy="639.81" fill="url(#SvgjsRadialGradient1364)"></circle><circle r="25" cx="543.81" cy="540.96" fill="url(#SvgjsRadialGradient1364)"></circle><circle r="25" cx="1097.66" cy="686.33" fill="url(#SvgjsRadialGradient1364)"></circle><circle r="25" cx="1255.34" cy="383.25" fill="url(#SvgjsRadialGradient1364)"></circle><circle r="25" cx="1434.18" cy="368.78" fill="url(#SvgjsRadialGradient1364)"></circle><circle r="25" cx="1593.28" cy="232.25" fill="url(#SvgjsRadialGradient1364)"></circle><circle r="25" cx="1547.01" cy="367.04" fill="url(#SvgjsRadialGradient1364)"></circle><circle r="5" cx="-43.01" cy="519.06" fill="#8b9ad9"></circle><circle r="5" cx="-38.96" cy="688.78" fill="#8b9ad9"></circle><circle r="5" cx="106.84" cy="525.86" fill="#8b9ad9"></circle><circle r="5" cx="51.67" cy="679.15" fill="#8b9ad9"></circle><circle r="5" cx="193.73" cy="557.92" fill="#8b9ad9"></circle><circle r="5" cx="214.07" cy="659.76" fill="#8b9ad9"></circle><circle r="5" cx="387.99" cy="541.83" fill="#8b9ad9"></circle><circle r="5" cx="545.6" cy="655.76" fill="#8b9ad9"></circle><circle r="5" cx="643.64" cy="527.32" fill="#8b9ad9"></circle><circle r="5" cx="684.7" cy="643.94" fill="#8b9ad9"></circle><circle r="5" cx="797.74" cy="337.55" fill="#8b9ad9"></circle><circle r="5" cx="809.07" cy="557.1" fill="#8b9ad9"></circle><circle r="5" cx="861.91" cy="706.61" fill="#8b9ad9"></circle><circle r="5" cx="968.75" cy="338.07" fill="#8b9ad9"></circle><circle r="5" cx="1007.96" cy="639.72" fill="#8b9ad9"></circle><circle r="5" cx="1114.72" cy="219.46" fill="#8b9ad9"></circle><circle r="5" cx="1126" cy="357.47" fill="#8b9ad9"></circle><circle r="5" cx="1252.49" cy="-40.89" fill="#8b9ad9"></circle><circle r="5" cx="1279.44" cy="54.52" fill="#8b9ad9"></circle><circle r="5" cx="1298.05" cy="204.93" fill="#8b9ad9"></circle><circle r="5" cx="1302.53" cy="560.59" fill="#8b9ad9"></circle><circle r="5" cx="1282.86" cy="697.21" fill="#8b9ad9"></circle><circle r="5" cx="1449.2" cy="-60.48" fill="#8b9ad9"></circle><circle r="5" cx="1460.88" cy="51.55" fill="#8b9ad9"></circle><circle r="5" cx="1407.63" cy="237.86" fill="#8b9ad9"></circle><circle r="5" cx="1458.41" cy="503.61" fill="#8b9ad9"></circle><circle r="5" cx="1435.14" cy="691.27" fill="#8b9ad9"></circle><circle r="5" cx="1609.96" cy="-109.56" fill="#8b9ad9"></circle><circle r="5" cx="1568.72" cy="65.5" fill="#8b9ad9"></circle><circle r="5" cx="1538.81" cy="549.63" fill="#8b9ad9"></circle><circle r="5" cx="1606.33" cy="686.96" fill="#8b9ad9"></circle></g><defs><mask id="SvgjsMask1362"><rect width="1440" height="560" fill="#ffffff"></rect></mask><linearGradient x1="100%" y1="50%" x2="0%" y2="50%" gradientUnits="userSpaceOnUse" id="SvgjsLinearGradient1363"><stop stop-color="#0e2a47" offset="0"></stop><stop stop-color="rgba(0, 0, 0, 1)" offset="0.7"></stop><stop stop-color="rgba(0, 0, 0, 1)" offset="0.7"></stop><stop stop-color="rgba(0, 0, 0, 1)" offset="1"></stop></linearGradient><radialGradient id="SvgjsRadialGradient1364"><stop stop-color="#ffffff" offset="0.1"></stop><stop stop-color="#1735b3" offset="0.2"></stop><stop stop-color="rgba(23, 53, 179, 0)" offset="1"></stop></radialGradient></defs></svg>